<?xml version="1.0" encoding="iso-8859-1"?>
<!-- Generator: Adobe Illustrator 20.1.0, SVG Export Plug-In . SVG Version: 6.00 Build 0)  -->
<svg xmlns="http://www.w3.org/2000/svg" xmlns:xlink="http://www.w3.org/1999/xlink" version="1.1" id="&#1057;&#1083;&#1086;&#1081;_1" x="0px" y="0px" viewBox="0 0 64 64" style="enable-background:new 0 0 64 64;" xml:space="preserve">
<linearGradient id="SVGID_1__46101" gradientUnits="userSpaceOnUse" x1="32" y1="4.125" x2="32" y2="60.0022" spreadMethod="reflect">
	<stop offset="0" style="stop-color:#1A6DFF"/>
	<stop offset="1" style="stop-color:#C822FF"/>
</linearGradient>
<path style="fill:url(#SVGID_1__46101);" d="M53,10H41.359C38.992,7.54,35.675,6,32,6s-6.992,1.54-9.359,4H11c-1.654,0-3,1.346-3,3v32  c0,1.654,1.346,3,3,3h15v4h-4c-1.654,0-3,1.346-3,3v1h-4v2h4h26h4v-2h-4v-1c0-1.654-1.346-3-3-3h-4v-4h15c1.654,0,3-1.346,3-3V13  C56,11.346,54.654,10,53,10z M32,8c6.065,0,11,4.935,11,11s-4.935,11-11,11s-11-4.935-11-11S25.935,8,32,8z M44.637,16H50v24H14V16  h5.363C19.134,16.965,19,17.966,19,19c0,4.633,2.445,8.697,6.104,11H19v2h26v-2h-6.104C42.555,27.697,45,23.633,45,19  C45,17.966,44.866,16.965,44.637,16z M42,54c0.552,0,1,0.448,1,1v1H21v-1c0-0.552,0.448-1,1-1h4h12H42z M36,52h-8v-4h8V52z M54,45  c0,0.552-0.448,1-1,1H38H26H11c-0.552,0-1-0.448-1-1V13c0-0.552,0.448-1,1-1h10.063c-0.408,0.635-0.769,1.304-1.063,2.008V14h-6  c-1.103,0-2,0.897-2,2v24c0,1.103,0.897,2,2,2h36c1.103,0,2-0.897,2-2V16c0-1.103-0.897-2-2-2h-6v0.008  c-0.294-0.705-0.655-1.373-1.063-2.008H53c0.552,0,1,0.448,1,1V45z"/>
<linearGradient id="SVGID_2__46101" gradientUnits="userSpaceOnUse" x1="32" y1="4.125" x2="32" y2="60.0022" spreadMethod="reflect">
	<stop offset="0" style="stop-color:#1A6DFF"/>
	<stop offset="1" style="stop-color:#C822FF"/>
</linearGradient>
<path style="fill:url(#SVGID_2__46101);" d="M32,28c4.963,0,9-4.037,9-9s-4.037-9-9-9s-9,4.037-9,9S27.037,28,32,28z M32,12  c3.859,0,7,3.141,7,7s-3.141,7-7,7s-7-3.141-7-7S28.141,12,32,12z"/>
<linearGradient id="SVGID_3__46101" gradientUnits="userSpaceOnUse" x1="32" y1="4.125" x2="32" y2="60.0022" spreadMethod="reflect">
	<stop offset="0" style="stop-color:#1A6DFF"/>
	<stop offset="1" style="stop-color:#C822FF"/>
</linearGradient>
<rect x="23" y="34" style="fill:url(#SVGID_3__46101);" width="18" height="2"/>
<linearGradient id="SVGID_4__46101" gradientUnits="userSpaceOnUse" x1="32" y1="13.5" x2="32" y2="25" spreadMethod="reflect">
	<stop offset="0" style="stop-color:#6DC7FF"/>
	<stop offset="1" style="stop-color:#E6ABFF"/>
</linearGradient>
<circle style="fill:url(#SVGID_4__46101);" cx="32" cy="19" r="5"/>
</svg>
